<?xml version="1.0" encoding="utf-8"?><svg viewBox="0 0 101 101" xmlns="http://www.w3.org/2000/svg" xmlns:xlink="http://www.w3.org/1999/xlink"><style>:root>svg{display:none}:root>svg:target{display:block}</style><svg viewBox="0 0 15 31" id="Vector" xmlns="http://www.w3.org/2000/svg"><path d="M6.4.837v.001l-6 6.028a1.154 1.154 0 001.636 1.628l4.027-4.047v24.431a1.154 1.154 0 102.307 0V4.447l4.028 4.047a1.154 1.154 0 101.635-1.628L8.034.838a1.155 1.155 0 00-1.634 0z"/></svg><svg viewBox="0 0 101 101" id="work-icon1" xmlns="http://www.w3.org/2000/svg"><rect x=".448" y=".123" width="100" height="100.002" rx="16"/><circle cx="65.494" cy="65.441" r="14"/><circle cx="35.402" cy="34.807" r="14"/></svg><svg viewBox="0 0 101 101" id="work-icon2" xmlns="http://www.w3.org/2000/svg"><rect x=".984" y=".125" width="100" height="100.002" rx="16"/><circle cx="50.984" cy="50.127" r="27.636"/></svg><svg viewBox="0 0 101 101" id="work-icon3" xmlns="http://www.w3.org/2000/svg"><rect x=".984" y=".128" width="100" height="100.002" rx="16"/><circle cx="67.702" cy="33.11" r="14.182"/><circle cx="34.266" cy="33.11" r="14.182"/><circle cx="34.266" cy="67.148" r="14.182"/><circle cx="67.702" cy="67.148" r="14.182"/></svg><svg viewBox="0 0 101 101" id="work-icon4" xmlns="http://www.w3.org/2000/svg"><rect x=".984" y=".13" width="100" height="100.002" rx="16"/><circle cx="67.703" cy="33.112" r="14.182"/><circle cx="34.266" cy="33.112" r="14.182"/><circle cx="34.266" cy="67.151" r="14.182"/></svg></svg>