<?xml version="1.0" encoding="utf-8"?><svg viewBox="0 0 180 101" xmlns="http://www.w3.org/2000/svg" xmlns:xlink="http://www.w3.org/1999/xlink"><style>:root>svg{display:none}:root>svg:target{display:block}</style><svg viewBox="0 0 15 31" id="Vector" xmlns="http://www.w3.org/2000/svg"><path d="M6.4.837v.001l-6 6.028a1.154 1.154 0 001.636 1.628l4.027-4.047v24.431a1.154 1.154 0 102.307 0V4.447l4.028 4.047a1.154 1.154 0 101.635-1.628L8.034.838a1.155 1.155 0 00-1.634 0z"/></svg><svg viewBox="0 0 180 23" id="logo" xmlns="http://www.w3.org/2000/svg"><path d="M17.045 18.002h-4.632l-.72-2.424H6.1l-.72 2.424H.725l5.544-16.8H11.5l5.544 16.8zM8.885 6.168l-1.68 5.713h3.384L8.885 6.169zm10.941-4.968h6.528c1.696 0 3.12.552 4.272 1.656 1.152 1.104 1.728 2.512 1.728 4.224 0 1.712-.576 3.12-1.728 4.224-1.152 1.104-2.576 1.656-4.272 1.656h-2.232v5.04h-4.296v-16.8zm4.296 7.68h2.232c.48 0 .88-.168 1.2-.504.336-.336.504-.768.504-1.296s-.168-.952-.504-1.272a1.589 1.589 0 00-1.2-.504h-2.232v3.576zm11.467-7.68h6.528c1.696 0 3.12.552 4.272 1.656 1.152 1.104 1.728 2.512 1.728 4.224 0 1.712-.576 3.12-1.728 4.224-1.152 1.104-2.576 1.656-4.272 1.656h-2.232v5.04H35.59v-16.8zm4.296 7.68h2.232c.48 0 .88-.168 1.2-.504.336-.336.504-.768.504-1.296s-.168-.952-.504-1.272a1.589 1.589 0 00-1.2-.504h-2.232v3.576zM60.712 12.674h-9.36V8.88h9.36v3.793zm11.424-7.009c1.6 0 2.937.608 4.008 1.824 1.088 1.216 1.632 2.72 1.632 4.513 0 1.791-.543 3.303-1.632 4.536-1.088 1.2-2.424 1.8-4.008 1.8-1.456 0-2.591-.48-3.407-1.44v5.904h-3.984v-16.8h3.983v1.103c.817-.96 1.953-1.44 3.409-1.44zm-2.712 8.233c.464.48 1.072.72 1.825.72.752 0 1.36-.24 1.824-.72.464-.496.696-1.128.696-1.896 0-.769-.233-1.4-.697-1.897-.463-.48-1.072-.72-1.823-.72-.752 0-1.36.24-1.825.72-.464.496-.696 1.128-.696 1.896 0 .769.233 1.4.697 1.897zm19.254-1.512V6h3.984v12h-3.984v-1.2c-.72 1.025-1.832 1.537-3.336 1.537-1.328 0-2.4-.448-3.216-1.345-.8-.912-1.2-2.183-1.2-3.815V6h3.984v6.673c0 .607.16 1.08.48 1.415.32.32.76.48 1.32.48.624 0 1.104-.184 1.44-.552.352-.383.528-.928.528-1.631zm15.243-6.72c1.6 0 2.936.607 4.008 1.823 1.088 1.216 1.632 2.72 1.632 4.513 0 1.791-.544 3.303-1.632 4.536-1.088 1.2-2.424 1.8-4.008 1.8-1.456 0-2.592-.48-3.408-1.44v1.104h-3.984v-16.8h3.984v5.903c.816-.96 1.952-1.44 3.408-1.44zm-2.712 8.232c.464.48 1.072.72 1.824.72s1.36-.24 1.824-.72c.464-.496.696-1.128.696-1.896 0-.769-.232-1.4-.696-1.897-.464-.48-1.072-.72-1.824-.72s-1.36.24-1.824.72c-.464.496-.696 1.128-.696 1.896 0 .769.232 1.4.696 1.897zm15.629 4.104h-3.984V.482h3.984v17.52zm7.457-13.657a2.194 2.194 0 01-1.608.672c-.624 0-1.168-.224-1.632-.672-.448-.464-.672-1.008-.672-1.632 0-.624.224-1.16.672-1.608.464-.448 1.008-.672 1.632-.672.624 0 1.16.224 1.608.672.464.448.696.984.696 1.608 0 .624-.232 1.168-.696 1.632zm.384 13.657h-3.984v-12h3.984v12zm7.603-8.497c0 .208.168.384.504.528.352.129.88.273 1.584.433.48.096.92.224 1.32.384.416.143.824.36 1.224.648.416.272.736.655.96 1.152.24.48.36 1.031.36 1.655 0 1.393-.512 2.409-1.536 3.049-1.04.655-2.256.983-3.648.983-2.688 0-4.48-.951-5.376-2.855l3.48-1.752c.304.88.928 1.32 1.872 1.32.72 0 1.08-.216 1.08-.649 0-.207-.168-.376-.504-.503-.32-.144-.84-.304-1.56-.48a7.525 7.525 0 01-1.32-.384 9.253 9.253 0 01-1.2-.673 2.789 2.789 0 01-.936-1.08c-.224-.463-.336-.992-.336-1.584 0-1.28.472-2.272 1.416-2.976.944-.704 2.08-1.056 3.408-1.056 2.352 0 4 .928 4.944 2.784l-3.36 1.512c-.352-.688-.848-1.032-1.488-1.032-.592 0-.888.192-.888.576zm16.385-3.84c1.328 0 2.392.456 3.192 1.368.816.896 1.224 2.16 1.224 3.792v7.177h-3.984V11.33c0-.608-.16-1.072-.48-1.393-.32-.336-.76-.504-1.32-.504-.624 0-1.112.192-1.464.576-.336.368-.504.905-.504 1.608v6.384h-3.984v-16.8h3.984v6c.72-1.024 1.832-1.536 3.336-1.536zm19.947 7.8h-8.28c.4.976 1.296 1.465 2.688 1.465.848 0 1.576-.28 2.184-.84l2.88 2.015c-1.168 1.488-2.888 2.232-5.16 2.232-2.032 0-3.664-.591-4.896-1.776-1.216-1.2-1.824-2.711-1.824-4.536 0-1.808.6-3.32 1.8-4.536 1.2-1.216 2.728-1.824 4.584-1.824 1.792 0 3.272.6 4.44 1.8 1.168 1.184 1.752 2.688 1.752 4.512 0 .56-.056 1.056-.168 1.489zm-8.328-2.76h4.608c-.304-1.12-1.056-1.68-2.256-1.68-1.232 0-2.016.56-2.352 1.68zm15.751-4.704v2.232a3.138 3.138 0 011.32-1.8c.672-.448 1.432-.672 2.28-.672v4.417c-.912-.145-1.744.023-2.496.503-.736.48-1.104 1.264-1.104 2.353V18h-3.984v-12h3.984z"/></svg><svg viewBox="0 0 101 101" id="work-icon1" xmlns="http://www.w3.org/2000/svg"><rect x=".448" y=".123" width="100" height="100.002" rx="16"/><circle cx="65.494" cy="65.441" r="14"/><circle cx="35.402" cy="34.807" r="14"/></svg><svg viewBox="0 0 101 101" id="work-icon2" xmlns="http://www.w3.org/2000/svg"><rect x=".984" y=".125" width="100" height="100.002" rx="16"/><circle cx="50.984" cy="50.127" r="27.636"/></svg><svg viewBox="0 0 101 101" id="work-icon3" xmlns="http://www.w3.org/2000/svg"><rect x=".984" y=".128" width="100" height="100.002" rx="16"/><circle cx="67.702" cy="33.11" r="14.182"/><circle cx="34.266" cy="33.11" r="14.182"/><circle cx="34.266" cy="67.148" r="14.182"/><circle cx="67.702" cy="67.148" r="14.182"/></svg><svg viewBox="0 0 101 101" id="work-icon4" xmlns="http://www.w3.org/2000/svg"><rect x=".984" y=".13" width="100" height="100.002" rx="16"/><circle cx="67.703" cy="33.112" r="14.182"/><circle cx="34.266" cy="33.112" r="14.182"/><circle cx="34.266" cy="67.151" r="14.182"/></svg></svg>