<svg width="15" height="31" viewBox="0 0 15 31" fill="none" xmlns="http://www.w3.org/2000/svg">
<path d="M6.40017 0.837454C6.39983 0.837801 6.39942 0.838089 6.39908 0.838493L0.40026 6.86638C-0.0491321 7.31796 -0.0474597 8.04838 0.404182 8.49789C0.855766 8.94734 1.58618 8.94561 2.03563 8.49402L6.06314 4.4469L6.06314 28.8781C6.06314 29.5153 6.57962 30.0317 7.21676 30.0317C7.85391 30.0317 8.37038 29.5153 8.37038 28.8781L8.37038 4.44695L12.3979 8.49396C12.8473 8.94555 13.5778 8.94728 14.0293 8.49783C14.481 8.04832 14.4826 7.31785 14.0333 6.86632L8.03445 0.838434C8.0341 0.838089 8.0337 0.837799 8.03335 0.837396C7.5824 0.385582 6.84962 0.387024 6.40017 0.837454Z" fill="#EEF7FE"/>
</svg>
